<svg width="12" height="18" viewBox="0 0 12 18" fill="none" xmlns="http://www.w3.org/2000/svg">
<path d="M7.5731 6.00375C7.257 6.19782 7.01203 6.43949 6.86583 6.76903C6.75915 7.0107 6.66827 7.25603 6.57739 7.50136C6.39168 8.01032 6.27315 8.53759 6.09929 9.04656C5.98866 9.36878 5.90568 9.69833 5.77924 10.0169C5.28929 11.2399 4.58992 12.3457 3.61396 13.294C2.95016 13.9385 2.18362 14.4694 1.37756 14.9601C1.29459 15.0077 1.21951 15.0663 1.14444 15.1212C0.946878 15.2677 0.946878 15.5826 1.17605 15.7363C1.28668 15.8096 1.40522 15.8608 1.53166 15.8938C2.10064 16.0476 2.67752 16.0146 3.2465 15.9194C4.60572 15.6924 5.81085 15.1285 6.9093 14.3706C8.3752 13.36 9.47365 12.0491 10.2995 10.5368C10.501 10.167 10.663 9.77889 10.7776 9.37977C10.9751 8.69138 11.0818 8.00666 10.9238 7.29264C10.9119 7.24504 10.9 7.2011 10.8882 7.1535C10.8724 7.09858 10.8289 7.0583 10.7736 7.04365C10.6748 7.02168 10.5681 6.98141 10.4615 6.9155C10.4536 6.91183 10.2876 6.81297 10.094 6.65918C10.0347 6.61524 9.88853 6.47244 9.75023 6.44681C9.73443 6.44681 9.69492 6.44681 9.67516 6.46512C9.61194 6.50539 9.56453 6.53835 9.40648 6.75072C9.03901 7.35123 8.86911 7.35123 8.77033 7.34757C8.60833 7.30729 8.49769 7.26701 8.44633 7.00338C8.41077 6.76903 8.37125 6.54201 8.28038 6.46146C8.27247 6.45413 8.16184 6.32964 7.8813 6.3333C7.8734 6.3333 7.80623 6.3333 7.79832 6.3333C7.74696 6.3333 7.67979 6.30401 7.62842 6.25274C7.56915 6.18683 7.58101 6.13923 7.59286 6.02206C7.59286 6.02206 7.59286 5.98911 7.56915 6.00375H7.5731Z" fill="#E72616"/>
<path d="M8.00376 4.99553C7.99624 4.90199 8.13539 4.85695 8.13539 4.85695C8.1542 4.85002 8.17301 4.8431 8.18805 4.8327C8.49269 4.5798 8.82365 4.35808 9.21104 4.21951C9.31258 4.18486 9.38404 4.10172 9.41789 4.00472C9.51191 3.7345 9.56081 3.45388 9.52696 3.1698C9.47054 2.67786 9.03803 2.48039 8.57167 2.72983C8.52654 2.75408 8.48141 2.78179 8.43251 2.80258C8.33473 2.84762 8.22942 2.87187 8.13163 2.80258C8.02257 2.72636 7.99248 2.6155 8.01504 2.49771C8.04889 2.33489 8.16172 2.22057 8.31592 2.14781C8.64313 1.99538 8.98914 1.96767 9.34267 2.03349C9.41037 2.04735 9.4743 2.05774 9.542 2.06467C9.9181 2.10278 10.2566 2.39032 10.3882 2.71943C10.5123 3.03469 10.5086 3.35342 10.4785 3.67214C10.4334 4.12943 10.5612 4.5417 10.7493 4.95396C10.8621 5.19993 11.0351 5.43897 10.9937 5.72998C10.9937 5.72998 10.9749 5.85469 10.8997 5.80966C10.8734 5.79233 10.7831 5.73344 10.753 5.71612C10.7493 5.71612 10.6139 5.63644 10.4371 5.4944C10.4033 5.47015 10.2115 5.27614 10.0196 5.22071C9.9181 5.18953 9.80151 5.20686 9.71125 5.26921C9.60594 5.3385 9.542 5.41472 9.36147 5.65722C9.13958 6.04177 9.07564 6.02445 9.03051 5.97248C9.01923 5.96209 9.00042 5.93091 8.98538 5.86855C8.95905 5.70226 8.771 5.41472 8.69202 5.29C8.69202 5.29 8.51149 5.096 8.13539 5.10639C8.10907 5.10639 8.00752 5.096 8 4.99553H8.00376Z" fill="#E72616"/>
</svg>
